<?xml version="1.0" encoding="utf-8"?>
<!-- Generator: Adobe Illustrator 21.0.1, SVG Export Plug-In . SVG Version: 6.00 Build 0)  -->
<svg version="1.1" id="Слой_1" xmlns="http://www.w3.org/2000/svg" xmlns:xlink="http://www.w3.org/1999/xlink" x="0px" y="0px"
	 viewBox="0 0 450 450" style="enable-background:new 0 0 450 450;" xml:space="preserve">
<style type="text/css">
	.st0{fill:none;stroke:#000000;stroke-width:4;}
	.st0 {
	  stroke-dasharray: 1000;
	  stroke-dashoffset: 1000;
	  animation: dash 2.5s linear forwards;
	}

	@keyframes dash {
	  to {
	    stroke-dashoffset: 0;
	  }
	}
</style>
<path class="st0" d="M118,308.3c-5.6,6.1-19.8,5.4-24.4-1c-3.2-4.4-0.1-9.4,2-21.3c1.9-10.8,5.4-30.8-2.5-38.1
	c-6-5.5-14.1,0.4-42.1,3.6c-20.4,2.3-36,3.9-41.6-4.1c-1.7-2.4-3.4-7,1-21.3c7.1-23.1,20-38.5,23.4-42.6
	c36.9-45.3,25.8-80.8,56.9-93.4c2.7-1.1,16.2-6.6,24.4-0.5c8,5.9,6.5,19.5,4.1,42.6c-6.7,64.5-7.4,84.7,2,90.4
	c7.1,4.3,16.2-1.9,21.8,4.6c3.9,4.5,4.4,13.1,0.5,17.3c-5.6,6.1-16.2-1.6-22.8,4.1c-1.8,1.5-4.6,5.1-2,35
	C119.9,300.3,121.3,304.7,118,308.3z"/>
<path class="st0" d="M93.6,117.5c-4.5-1-4.5,25.3-26.9,53.3c-1.8,2.3-11.4,17.6-30.5,48.2c-0.8,1.3-2.7,4.4-1.5,6.6
	c2.1,4.1,12.4,0.6,28.9,0c19.8-0.7,25.6,3.5,30.5-1c6-5.6,2.6-17.2,0.5-27.9C85.6,151,98.9,118.6,93.6,117.5z"/>
<path class="st0" d="M289.1,199.6c0,52.5-30.1,112.5-61.7,112.9c-19.6,0.3-35.3-22.6-42.9-33.6c-19.3-28.2-19.2-57.8-18.8-79.2
	c0.4-19,1.8-74.4,39.6-103c7-5.3,13.4-10,22.1-9.9C258.2,87,289.1,147.1,289.1,199.6z"/>
<path class="st0" d="M260.6,201.5c-1.7,36.6-16.9,88.1-35,88.1c-19.3,0-35-39.4-35-88.1c0-41.8,19.4-88.6,35-88.1
	c3.8,0.1,6.6,3,9.1,6.1C262.9,153.1,260.6,201.5,260.6,201.5z"/>
<path class="st0" d="M415.6,307.3c-5.6,6.1-19.8,5.4-24.4-1c-3.2-4.4-0.1-9.4,2-21.3c1.9-10.8,5.4-30.8-2.5-38.1
	c-6-5.5-14.1,0.4-42.1,3.6c-20.4,2.3-36,3.9-41.6-4.1c-1.7-2.4-3.4-7,1-21.3c7.1-23.1,20-38.5,23.4-42.6
	c36.9-45.3,25.8-80.8,56.9-93.4c2.7-1.1,16.2-6.6,24.4-0.5c8,5.9,6.5,19.5,4.1,42.6c-6.7,64.5-7.4,84.7,2,90.4
	c7.1,4.3,16.2-1.9,21.8,4.6c3.9,4.5,4.4,13.1,0.5,17.3c-5.6,6.1-16.2-1.6-22.8,4.1c-1.8,1.5-4.6,5.1-2,35
	C417.5,299.3,418.9,303.7,415.6,307.3z"/>
<path class="st0" d="M391.2,116.5c-4.5-1-4.5,25.3-26.9,53.3c-1.8,2.3-11.4,17.6-30.5,48.2c-0.8,1.3-2.7,4.4-1.5,6.6
	c2.1,4.1,12.4,0.6,28.9,0c19.8-0.7,25.6,3.5,30.5-1c6-5.6,2.6-17.2,0.5-27.9C383.2,150,396.5,117.6,391.2,116.5z"/>
</svg>
